<svg version="1.1" id="Layer_1" xmlns="http://www.w3.org/2000/svg" xmlns:xlink="http://www.w3.org/1999/xlink" x="0px" y="0px"
	 width="100%" viewBox="0 0 3304 2554" enable-background="new 0 0 3304 2554" xml:space="preserve">
<path fill="#000000" opacity="1.000000" stroke="none" 
	d="
M1806.000000,2556.000000 
	C1204.000122,2556.000000 603.000244,2556.000000 2.000242,2556.000000 
	C2.000161,1704.666870 2.000161,853.333862 2.000081,2.000585 
	C1103.332886,2.000390 2204.665771,2.000390 3305.999023,2.000195 
	C3305.999268,853.332764 3305.999268,1704.665527 3305.999512,2555.999023 
	C2806.333252,2556.000000 2306.666748,2556.000000 1806.000000,2556.000000 
M1504.471680,681.145996 
	C1504.433594,660.150085 1504.743652,639.145386 1504.211548,618.162048 
	C1503.943237,607.579834 1503.317627,596.755859 1500.860840,586.519470 
	C1479.516968,497.587738 1423.967896,442.932312 1334.745239,422.927582 
	C1322.603271,420.205261 1310.029541,418.204529 1296.312012,420.622803 
	C1296.312012,425.161804 1296.311890,429.417206 1296.311890,433.672577 
	C1296.311279,618.307434 1296.304077,802.942261 1296.330933,987.577148 
	C1296.332275,996.572815 1296.631348,1005.568542 1296.709839,1016.618774 
	C1294.874390,1059.660767 1296.716064,1102.384033 1307.226074,1144.427246 
	C1327.893921,1227.104614 1369.324951,1297.374878 1432.293457,1354.936279 
	C1465.771118,1385.539185 1503.330566,1409.736206 1544.703369,1428.210693 
	C1593.280396,1449.901978 1644.337646,1460.910645 1697.257690,1463.565308 
	C1722.884644,1464.850830 1748.510742,1463.091431 1773.853271,1459.353394 
	C1824.676392,1451.857178 1872.733154,1435.848633 1917.543091,1410.461792 
	C1959.018066,1386.964233 1995.667725,1357.580688 2027.152832,1321.701538 
	C2053.470215,1291.711426 2074.994873,1258.666382 2091.971191,1222.606201 
	C2113.014404,1177.906982 2125.728516,1130.831909 2129.400146,1081.684570 
	C2131.877686,1048.520630 2131.393555,1015.224609 2126.211426,982.126038 
	C2118.782471,934.675842 2104.126709,889.746704 2081.093018,847.576599 
	C2077.659912,841.291382 2074.260254,834.987732 2071.101318,829.165222 
	C2072.023682,827.949768 2072.173584,827.618042 2072.429932,827.438965 
	C2073.241699,826.872131 2074.073975,826.328186 2074.932617,825.835571 
	C2111.888184,804.635254 2130.175293,773.214172 2130.604248,730.133728 
	C2131.114502,678.894897 2086.149902,628.203796 2028.604248,628.288513 
	C1925.281738,628.440674 1821.958984,628.283081 1718.636353,628.390625 
	C1705.018188,628.404785 1691.374268,628.818542 1677.788452,629.734070 
	C1640.729858,632.231506 1604.908691,640.628845 1569.979614,653.109558 
	C1547.344727,661.197388 1525.948608,671.930481 1504.471680,681.145996 
M1547.000000,1671.659058 
	C1533.000610,1671.661011 1518.998779,1671.832764 1505.002686,1671.618408 
	C1490.288452,1671.393066 1475.788818,1672.725830 1461.384277,1675.799072 
	C1415.133423,1685.666748 1376.419678,1708.458862 1345.912842,1744.425049 
	C1312.345947,1783.998657 1295.698853,1829.784546 1296.066772,1882.107178 
	C1296.309082,1916.583984 1304.401123,1948.574463 1320.221924,1978.887207 
	C1321.195068,1980.751953 1322.745972,1982.315186 1324.061035,1984.062500 
	C1325.183838,1983.102539 1325.806641,1982.754028 1326.168335,1982.226318 
	C1327.295044,1980.582520 1328.306396,1978.860229 1329.391479,1977.187256 
	C1345.927124,1951.693359 1366.847046,1930.611206 1392.377441,1914.050537 
	C1428.706177,1890.485840 1468.918701,1880.465820 1511.722168,1880.403320 
	C1650.049805,1880.201172 1788.378174,1880.370605 1926.706055,1880.235474 
	C1936.312866,1880.226074 1946.056396,1879.691162 1955.502197,1878.051392 
	C2024.004639,1866.158569 2075.778320,1829.600220 2107.343506,1767.997559 
	C2140.297607,1703.684692 2139.278320,1637.974243 2106.345947,1573.223877 
	C2105.402588,1571.368896 2103.917236,1569.789795 2102.240967,1567.467896 
	C2099.225098,1571.941284 2096.854736,1575.506348 2094.435059,1579.037354 
	C2085.188721,1592.530029 2074.687500,1604.885254 2062.615967,1616.008301 
	C2021.999390,1653.434082 1973.695679,1671.357666 1918.985474,1671.534424 
	C1795.658081,1671.932983 1672.328613,1671.659302 1547.000000,1671.659058 
z"/>
<path fill="#EE5323" opacity="1.000000" stroke="none" 
	d="
M1504.771973,683.160217 
	C1525.948608,671.930481 1547.344727,661.197388 1569.979614,653.109558 
	C1604.908691,640.628845 1640.729858,632.231506 1677.788452,629.734070 
	C1691.374268,628.818542 1705.018188,628.404785 1718.636353,628.390625 
	C1821.958984,628.283081 1925.281738,628.440674 2028.604248,628.288513 
	C2086.149902,628.203796 2131.114502,678.894897 2130.604248,730.133728 
	C2130.175293,773.214172 2111.888184,804.635254 2074.932617,825.835571 
	C2074.073975,826.328186 2073.241699,826.872131 2072.429932,827.438965 
	C2072.173584,827.618042 2072.023682,827.949768 2071.101318,829.165222 
	C2074.260254,834.987732 2077.659912,841.291382 2081.093018,847.576599 
	C2104.126709,889.746704 2118.782471,934.675842 2126.211426,982.126038 
	C2131.393555,1015.224609 2131.877686,1048.520630 2129.400146,1081.684570 
	C2125.728516,1130.831909 2113.014404,1177.906982 2091.971191,1222.606201 
	C2074.994873,1258.666382 2053.470215,1291.711426 2027.152832,1321.701538 
	C1995.667725,1357.580688 1959.018066,1386.964233 1917.543091,1410.461792 
	C1872.733154,1435.848633 1824.676392,1451.857178 1773.853271,1459.353394 
	C1748.510742,1463.091431 1722.884644,1464.850830 1697.257690,1463.565308 
	C1644.337646,1460.910645 1593.280396,1449.901978 1544.703369,1428.210693 
	C1503.330566,1409.736206 1465.771118,1385.539185 1432.293457,1354.936279 
	C1369.324951,1297.374878 1327.893921,1227.104614 1307.226074,1144.427246 
	C1296.716064,1102.384033 1294.874390,1059.660767 1296.966064,1014.945068 
	C1298.980469,999.417419 1299.948975,985.409180 1302.620483,971.733704 
	C1326.574951,849.109070 1391.750610,754.736328 1497.621826,688.423889 
	C1500.122925,686.857300 1502.393799,684.922974 1504.771973,683.160217 
M1918.293457,1010.859863 
	C1914.705078,990.065186 1907.966675,970.386169 1898.500244,951.486206 
	C1859.432373,873.486938 1771.960449,827.913818 1687.673462,839.462341 
	C1640.435669,845.934631 1600.023193,865.304565 1566.468262,899.056641 
	C1521.824585,943.962341 1501.706787,998.461304 1506.082642,1061.214355 
	C1510.086670,1118.634521 1534.582397,1166.806885 1578.735352,1203.986816 
	C1630.929932,1247.938110 1691.430664,1263.626099 1757.800415,1248.774414 
	C1828.859497,1232.873535 1878.810425,1189.593140 1906.590454,1122.088135 
	C1921.037109,1086.983276 1925.349609,1050.273804 1918.293457,1010.859863 
z"/>
<path fill="#515AA9" opacity="1.000000" stroke="none" 
	d="
M1548.000000,1671.658936 
	C1672.328613,1671.659302 1795.658081,1671.932983 1918.985474,1671.534424 
	C1973.695679,1671.357666 2021.999390,1653.434082 2062.615967,1616.008301 
	C2074.687500,1604.885254 2085.188721,1592.530029 2094.435059,1579.037354 
	C2096.854736,1575.506348 2099.225098,1571.941284 2102.240967,1567.467896 
	C2103.917236,1569.789795 2105.402588,1571.368896 2106.345947,1573.223877 
	C2139.278320,1637.974243 2140.297607,1703.684692 2107.343506,1767.997559 
	C2075.778320,1829.600220 2024.004639,1866.158569 1955.502197,1878.051392 
	C1946.056396,1879.691162 1936.312866,1880.226074 1926.706055,1880.235474 
	C1788.378174,1880.370605 1650.049805,1880.201172 1511.722168,1880.403320 
	C1468.918701,1880.465820 1428.706177,1890.485840 1392.377441,1914.050537 
	C1366.847046,1930.611206 1345.927124,1951.693359 1329.391479,1977.187256 
	C1328.306396,1978.860229 1327.295044,1980.582520 1326.168335,1982.226318 
	C1325.806641,1982.754028 1325.183838,1983.102539 1324.061035,1984.062500 
	C1322.745972,1982.315186 1321.195068,1980.751953 1320.221924,1978.887207 
	C1304.401123,1948.574463 1296.309082,1916.583984 1296.066772,1882.107178 
	C1295.698853,1829.784546 1312.345947,1783.998657 1345.912842,1744.425049 
	C1376.419678,1708.458862 1415.133423,1685.666748 1461.384277,1675.799072 
	C1475.788818,1672.725830 1490.288452,1671.393066 1505.002686,1671.618408 
	C1518.998779,1671.832764 1533.000610,1671.661011 1548.000000,1671.658936 
z"/>
<path fill="#02AE93" opacity="1.000000" stroke="none" 
	d="
M1504.621826,682.153076 
	C1502.393799,684.922974 1500.122925,686.857300 1497.621826,688.423889 
	C1391.750610,754.736328 1326.574951,849.109070 1302.620483,971.733704 
	C1299.948975,985.409180 1298.980469,999.417419 1297.007080,1013.917725 
	C1296.631348,1005.568542 1296.332275,996.572815 1296.330933,987.577148 
	C1296.304077,802.942261 1296.311279,618.307434 1296.311890,433.672577 
	C1296.311890,429.417206 1296.312012,425.161804 1296.312012,420.622803 
	C1310.029541,418.204529 1322.603271,420.205261 1334.745239,422.927582 
	C1423.967896,442.932312 1479.516968,497.587738 1500.860840,586.519470 
	C1503.317627,596.755859 1503.943237,607.579834 1504.211548,618.162048 
	C1504.743652,639.145386 1504.433594,660.150085 1504.621826,682.153076 
z"/>
<path fill="#010000" opacity="1.000000" stroke="none" 
	d="
M1918.363281,1011.732117 
	C1925.349609,1050.273804 1921.037109,1086.983276 1906.590454,1122.088135 
	C1878.810425,1189.593140 1828.859497,1232.873535 1757.800415,1248.774414 
	C1691.430664,1263.626099 1630.929932,1247.938110 1578.735352,1203.986816 
	C1534.582397,1166.806885 1510.086670,1118.634521 1506.082642,1061.214355 
	C1501.706787,998.461304 1521.824585,943.962341 1566.468262,899.056641 
	C1600.023193,865.304565 1640.435669,845.934631 1687.673462,839.462341 
	C1771.960449,827.913818 1859.432373,873.486938 1898.500244,951.486206 
	C1907.966675,970.386169 1914.705078,990.065186 1918.363281,1011.732117 
z"/>
</svg>